<svg version="1.0" xmlns="http://www.w3.org/2000/svg"
      width="562.000000pt" height="444.000000pt" viewBox="0 0 562.000000 444.000000"
      preserveAspectRatio="xMidYMid meet">

      <g transform="translate(0.000000,444.000000) scale(0.100000,-0.100000)"
            fill="#FFFFFF" stroke="none">
            <path
                  d="M1800 4302 c-184 -139 -936 -707 -1420 -1072 -190 -144 -351 -267
-358 -274 -12 -11 30 -47 250 -218 338 -262 483 -373 536 -411 l42 -31 0 -516
c0 -398 3 -520 13 -532 6 -8 73 -54 147 -100 74 -47 241 -152 370 -233 257
-162 369 -233 745 -470 600 -379 675 -425 689 -425 8 0 79 41 158 91 79 50
276 175 438 277 573 360 1166 736 1263 798 l97 64 0 519 0 520 33 26 c64 50
555 428 685 527 105 80 131 104 120 112 -96 74 -880 666 -1503 1135 -214 162
-399 302 -411 312 -11 11 -25 19 -31 19 -5 0 -37 -21 -69 -47 -33 -27 -125
-97 -203 -158 -79 -60 -238 -184 -355 -276 l-211 -165 3 -75 c4 -92 24 -186
62 -300 149 -446 593 -824 1165 -993 193 -57 472 -106 603 -106 26 0 41 -4 37
-10 -3 -5 -26 -10 -50 -10 -75 0 -345 -39 -452 -65 -269 -65 -517 -170 -713
-303 -366 -246 -588 -563 -647 -922 -9 -54 -19 -97 -23 -95 -4 3 -11 37 -15
77 -14 148 -105 371 -216 528 -74 106 -285 313 -394 387 -340 229 -724 359
-1148 389 -98 7 -145 24 -67 24 73 0 291 30 410 56 614 136 1096 475 1306 919
69 144 114 322 114 446 l0 57 -57 43 c-32 24 -119 92 -193 150 -310 242 -581
449 -588 449 -4 -1 -77 -54 -162 -118z" />
      </g>
</svg>