<svg xmlns="http://www.w3.org/2000/svg" width="762" height="602" viewBox="0 0 762 602">
<g>
<path d="M 0.00 402.92 L 0.00 101.06 C0.00,181.63 0.25,201.97 1.25,201.38 C1.94,200.98 8.80,195.86 16.50,190.00 C24.20,184.15 44.45,168.84 61.50,155.98 C78.55,143.12 99.70,127.15 108.50,120.49 C117.30,113.83 142.05,95.16 163.50,79.00 C184.95,62.85 213.30,41.45 226.50,31.45 C264.25,2.86 265.43,2.00 266.61,2.00 C267.23,2.00 276.23,8.61 286.61,16.68 C297.00,24.76 312.25,36.59 320.50,42.97 C328.75,49.36 345.40,62.25 357.50,71.61 C369.60,80.98 380.04,88.96 380.70,89.35 C381.41,89.77 386.32,86.64 392.70,81.73 C398.64,77.14 417.67,62.42 435.00,49.00 C490.33,6.15 495.79,2.00 496.83,2.00 C497.40,2.00 509.48,10.77 523.68,21.50 C537.88,32.22 565.25,52.88 584.50,67.41 C603.75,81.93 629.85,101.63 642.50,111.19 C655.15,120.74 681.25,140.44 700.50,154.95 C719.75,169.47 740.90,185.47 747.50,190.50 C754.10,195.54 760.06,199.98 760.75,200.39 C761.75,200.97 762.00,180.73 762.00,100.56 L 762.00 203.98 L 752.75 211.20 C742.30,219.36 723.11,234.24 702.05,250.50 C694.22,256.55 678.98,268.34 668.20,276.71 L 648.59 291.92 L 648.53 298.71 C648.49,302.44 648.36,334.33 648.23,369.58 L 648.00 433.65 L 640.75 438.21 C633.45,442.81 610.95,456.98 553.00,493.47 C535.67,504.39 515.65,517.01 508.50,521.53 C501.35,526.05 488.52,534.13 480.00,539.48 C471.48,544.84 462.92,550.25 461.00,551.50 C459.08,552.75 450.75,558.02 442.50,563.22 C434.25,568.41 417.73,578.81 405.79,586.34 C393.85,593.87 383.43,600.28 382.64,600.59 C381.80,600.91 359.46,587.42 329.35,568.42 C300.83,550.43 263.55,526.92 246.50,516.18 C229.45,505.44 202.68,488.55 187.00,478.65 C142.47,450.53 129.02,442.07 121.78,437.62 L 115.06 433.50 L 115.00 292.00 L 109.25 287.57 C103.63,283.24 58.00,247.93 20.64,219.00 C10.34,211.02 1.49,204.35 0.96,204.17 C0.35,203.95 0.00,276.40 0.00,402.92 ZM 379.31 465.80 C381.48,478.02 381.51,478.10 382.30,473.32 C386.65,446.94 394.85,425.44 408.75,404.00 C446.53,345.73 524.46,302.73 608.00,294.05 C631.84,291.57 633.95,291.27 628.50,291.13 C613.99,290.75 580.19,285.44 563.00,280.83 C505.03,265.31 455.76,236.12 424.39,198.73 C400.20,169.91 386.22,137.97 383.03,104.25 C382.53,99.05 381.88,94.54 381.57,94.23 C381.25,93.92 381.00,94.53 380.99,95.58 C380.99,96.64 380.52,101.53 379.96,106.46 C373.76,160.54 342.07,207.42 287.50,243.22 C274.10,252.02 248.45,265.02 234.00,270.34 C204.60,281.18 171.44,288.43 140.50,290.79 L 130.50 291.56 L 144.50 292.83 C198.97,297.79 249.88,314.41 288.50,339.85 C339.42,373.40 370.56,416.59 379.31,465.80 Z" fill="rgb(35,31,32)"/>
<path d="M 0.00 402.92 C0.00,276.40 0.35,203.95 0.96,204.17 C1.49,204.35 10.34,211.02 20.64,219.00 C58.00,247.93 103.63,283.24 109.25,287.57 L 115.00 292.00 L 115.03 362.75 L 115.06 433.50 L 121.78 437.62 C129.02,442.07 142.47,450.53 187.00,478.65 C202.68,488.55 229.45,505.44 246.50,516.18 C263.55,526.92 300.83,550.43 329.35,568.42 C359.46,587.42 381.80,600.91 382.64,600.59 C383.43,600.28 393.85,593.87 405.79,586.34 C417.73,578.81 434.25,568.41 442.50,563.22 C450.75,558.02 459.08,552.75 461.00,551.50 C462.92,550.25 471.48,544.84 480.00,539.48 C488.52,534.13 501.35,526.05 508.50,521.53 C515.65,517.01 535.67,504.39 553.00,493.47 C610.95,456.98 633.45,442.81 640.75,438.21 L 648.00 433.65 L 648.23 369.58 C648.36,334.33 648.49,302.44 648.53,298.71 L 648.59 291.92 L 668.20 276.71 C678.98,268.34 694.22,256.55 702.05,250.50 C723.11,234.24 742.30,219.36 752.75,211.20 L 762.00 203.98 L 762.00 402.99 L 762.00 602.00 L 381.00 602.00 L 0.00 602.00 L 0.00 402.92 ZM 379.31 465.80 C370.56,416.59 339.42,373.40 288.50,339.85 C249.88,314.41 198.97,297.79 144.50,292.83 L 130.50 291.56 L 140.50 290.79 C171.44,288.43 204.60,281.18 234.00,270.34 C248.45,265.02 274.10,252.02 287.50,243.22 C342.07,207.42 373.76,160.54 379.96,106.46 C380.52,101.53 380.99,96.64 380.99,95.58 C381.00,94.53 381.25,93.92 381.57,94.23 C381.88,94.54 382.53,99.05 383.03,104.25 C386.22,137.97 400.20,169.91 424.39,198.73 C455.76,236.12 505.03,265.31 563.00,280.83 C580.19,285.44 613.99,290.75 628.50,291.13 C633.95,291.27 631.84,291.57 608.00,294.05 C524.46,302.73 446.53,345.73 408.75,404.00 C394.85,425.44 386.65,446.94 382.30,473.32 C381.51,478.10 381.48,478.02 379.31,465.80 ZM 0.00 101.06 L 0.00 0.00 L 381.00 0.00 L 762.00 0.00 L 762.00 100.56 C762.00,180.73 761.75,200.97 760.75,200.39 C760.06,199.98 754.10,195.54 747.50,190.50 C740.90,185.47 719.75,169.47 700.50,154.95 C681.25,140.44 655.15,120.74 642.50,111.19 C629.85,101.63 603.75,81.93 584.50,67.41 C565.25,52.88 537.88,32.22 523.68,21.50 C509.48,10.77 497.40,2.00 496.83,2.00 C495.79,2.00 490.33,6.15 435.00,49.00 C417.67,62.42 398.64,77.14 392.70,81.73 C386.32,86.64 381.41,89.77 380.70,89.35 C380.04,88.96 369.60,80.98 357.50,71.61 C345.40,62.25 328.75,49.36 320.50,42.97 C312.25,36.59 297.00,24.76 286.61,16.68 C276.23,8.61 267.23,2.00 266.61,2.00 C265.43,2.00 264.25,2.86 226.50,31.45 C213.30,41.45 184.95,62.85 163.50,79.00 C142.05,95.16 117.30,113.83 108.50,120.49 C99.70,127.15 78.55,143.12 61.50,155.98 C44.45,168.84 24.20,184.15 16.50,190.00 C8.80,195.86 1.94,200.98 1.25,201.38 C0.25,201.97 0.00,181.63 0.00,101.06 Z" fill="rgb(254,254,254)"/>
</g>
</svg>